<svg xmlns="http://www.w3.org/2000/svg" viewBox="0 0 124.45 94.05"><defs><style>.cls-1{fill:#07689f;}.cls-2{fill:#fff;}</style></defs><g id="Layer_2" data-name="Layer 2"><g id="OBJECTS"><path class="cls-1" d="M106.42,75.72l-16.83,6.8L69.34,90.71h0l-.11.05a1,1,0,0,0-.16.06l-.49.16-.27.08-.43.1-.32,0-.39.05-.35,0-.37,0h0l-.62,0h-.09a5,5,0,0,1-.54-.08l-.18,0-.08,0-.4-.1a1.8,1.8,0,0,1-.22-.06l-.48-.16-.17-.06-56-22.63a7.6,7.6,0,0,1-4.39-9.64A7.42,7.42,0,0,1,13,54.26L62.75,74.37l.83.34a7.54,7.54,0,0,0,5.68,0l45-18.18,9.38-3.79a1.21,1.21,0,0,0,.07-2.25l-51.9-23.4a13.1,13.1,0,0,0-10.79,0L6.75,51.56a10.18,10.18,0,0,0-.38,19l56,22.62a9.83,9.83,0,0,0,2.08.64l.13,0,.74.11.22,0a8.7,8.7,0,0,0,.89,0h0a10.17,10.17,0,0,0,3.81-.74l51.3-20.72c2.49-1,2.92-1.9,2.92-4.14Zm-40-2.83h0ZM7.6,51.3h0M9.33,51l-.17,0,.17,0m-.86.11-.13,0,.13,0"/><path class="cls-1" d="M66.42,87.82a8.4,8.4,0,0,1-2.37-.35l-.08,0L10,65.59A.86.86,0,1,1,10.62,64l54,21.83a6.47,6.47,0,0,0,3.7,0l52.1-21a.86.86,0,1,1,.64,1.59l-52.13,21-.08,0a8.52,8.52,0,0,1-2.38.35"/><path class="cls-1" d="M66.42,81.83a8.4,8.4,0,0,1-2.37-.35l-.08,0L10,59.6A.86.86,0,0,1,10.62,58l54,21.83a6.47,6.47,0,0,0,3.7,0l52.1-21a.86.86,0,0,1,.64,1.6l-52.13,21-.08,0a8.52,8.52,0,0,1-2.38.35"/><path class="cls-1" d="M62.55.4,24.34,17.84a1.24,1.24,0,0,0,0,2.25L62.55,37.54a4.44,4.44,0,0,0,3.64,0L104.4,20.09a1.24,1.24,0,0,0,0-2.25L66.19.4a4.37,4.37,0,0,0-3.64,0"/><path class="cls-2" d="M64.17,58.19c-16.81,0-29.48-5.72-29.48-13.3V25.06L61.6,37.35a6.61,6.61,0,0,0,2.77.6,6.69,6.69,0,0,0,2.78-.6l26.49-12.1V44.89c0,7.58-12.67,13.3-29.47,13.3"/><path class="cls-1" d="M68,39.3a8.8,8.8,0,0,1-7.33,0L36.83,28.4V44.89c0,6.16,12.24,11.16,27.33,11.16s27.34-5,27.34-11.16V28.58Z"/></g></g></svg>